<?xml version="1.0" standalone="no"?><!DOCTYPE svg PUBLIC "-//W3C//DTD SVG 1.1//EN" "http://www.w3.org/Graphics/SVG/1.1/DTD/svg11.dtd"><svg t="1678113352307" class="icon" viewBox="0 0 1024 1024" version="1.1" xmlns="http://www.w3.org/2000/svg" p-id="1596" xmlns:xlink="http://www.w3.org/1999/xlink" width="15" height="15"><path d="M874.064 149.944C970.752 246.656 1024 375.216 1024 512c0 136.752-53.248 265.384-149.936 362.064C777.384 970.752 648.752 1024 512 1024c-136.784 0-265.344-53.248-362.056-149.936C53.248 777.384 0 648.752 0 512c0-136.784 53.248-265.344 149.944-362.056C246.656 53.248 375.216 0 512 0 648.752 0 777.384 53.248 874.064 149.944zM828.816 828.816c63.056-63.064 104.936-141.696 122.304-227.064-13.488 19.816-26.368 27.184-34.368-17.248-8.248-72.368-74.688-26.12-116.56-51.832-44.056 29.648-142.936-57.664-126.072 40.832 25.88 44.384 140-59.44 83.136 34.56-36.248 65.552-132.688 210.936-120.12 286.32 1.616 109.736-112.136 22.864-151.328-13.504-26.336-72.944-8.936-200.448-77.872-236.136-74.808-3.248-139-10.064-168-93.752-17.464-59.808 18.568-148.808 82.688-162.592 93.808-58.944 127.344 69.056 215.344 71.44 27.344-28.624 101.84-37.688 107.968-69.752-57.688-10.184 73.312-48.592-5.504-70.408-43.44 5.136-71.44 45.064-48.376 78.976-84.216 19.656-86.904-121.904-167.936-77.248-2.032 70.592-132.216 22.904-45.056 8.56 29.968-13.096-48.816-51-6.248-44.096 20.904-1.128 91.312-25.784 72.24-42.408 39.224-24.344 72.128 58.28 110.56-1.872 27.632-46.256-11.68-54.784-46.368-31.344-19.592-21.968 34.56-69.248 82.312-89.752 15.936-6.84 31.056-10.56 42.752-9.472 24.056 27.776 68.552 32.592 70.824-3.312-59.568-28.56-125.264-43.584-193.256-43.584-97.592 0-190.472 31.024-267.344 88.368 20.68 9.472 32.4 21.248 12.504 36.312-15.44 46.064-78.16 107.904-133.248 99.128-28.624 49.28-47.44 103.632-55.504 160.504 46.096 15.248 56.776 45.44 46.84 55.568-23.472 20.472-37.936 49.504-45.376 81.384 15.064 91.808 58.184 176.368 125.248 243.552 84.624 84.56 197.128 131.192 316.816 131.192 119.68 0 232.184-46.632 316.816-131.192L828.816 828.816z" fill="#0ab916" p-id="1597"></path></svg>