<svg xmlns="http://www.w3.org/2000/svg" width="16px" height="16px" viewBox="0 0 2048 2048">
	<rect fill-opacity="1" x="0" y="0" width="2048" height="2048" rx="128" ry="128" fill="#00f0c8"></rect>
	<g transform="scale(1)"><path fill-opacity="1" transform="translate(430.08, 1596.96) rotate(180) scale(-1, 1)" fill="#f5f5f5" d="M991 1085v-256q-81 52 -168.5 78.5t-175.5 26.5q-98 0 -148 -28.5t-50 -84.5q0 -80 214 -130l11 -3l84 -20q160 -38 234.5 -122.5t74.5 -228.5q0 -173 -113.5 -259.5t-341.5 -86.5q-101 0 -207 17.5t-215 52.5v256q97 -55 197.5 -84t194.5 -29q103 0 156 30t53 87 q0 56 -37.5 86t-178.5 64l-81 18q-168 38 -245 119t-77 217q0 162 117 252t329 90q95 0 189.5 -15.5t183.5 -46.5z"></path></g>
</svg>